HIERARCHY
ROOT root
{
	OFFSET 0.000000 0.000000 0.000000
	CHANNELS 6 Xposition Yposition Zposition Zrotation Yrotation Xrotation
	JOINT lhip
	{
		OFFSET 0.058581 -0.082280 -0.017664
		CHANNELS 3 Zrotation Yrotation Xrotation
		JOINT lknee
		{
			OFFSET 0.043451 -0.386469 0.008037
			CHANNELS 3 Zrotation Yrotation Xrotation
			JOINT lankle
			{
				OFFSET -0.014790 -0.426874 -0.037428
				CHANNELS 3 Zrotation Yrotation Xrotation
				JOINT ltoe
				{
					OFFSET 0.041054 -0.060286 0.122042
					CHANNELS 3 Zrotation Yrotation Xrotation
					End Site
					{
						OFFSET 0.000000 0.000000 0.000000
					}
				}
			}
		}
	}
	JOINT rhip
	{
		OFFSET -0.060310 -0.090513 -0.013543
		CHANNELS 3 Zrotation Yrotation Xrotation
		JOINT rknee
		{
			OFFSET -0.043257 -0.383688 -0.004843
			CHANNELS 3 Zrotation Yrotation Xrotation
			JOINT rankle
			{
				OFFSET 0.019056 -0.420046 -0.034562
				CHANNELS 3 Zrotation Yrotation Xrotation
				JOINT rtoe
				{
					OFFSET -0.034840 -0.062106 0.130323
					CHANNELS 3 Zrotation Yrotation Xrotation
					End Site
					{
						OFFSET 0.000000 0.000000 0.000000
					}
				}
			}
		}
	}
	JOINT lowerback
	{
		OFFSET 0.004439 0.124404 -0.038385
		CHANNELS 3 Zrotation Yrotation Xrotation
		JOINT upperback
		{
			OFFSET 0.004488 0.137956 0.026820
			CHANNELS 3 Zrotation Yrotation Xrotation
			JOINT chest
			{
				OFFSET -0.002265 0.056032 0.002855
				CHANNELS 3 Zrotation Yrotation Xrotation
				JOINT lowerneck
				{
					OFFSET -0.013390 0.211636 -0.033468
					CHANNELS 3 Zrotation Yrotation Xrotation
					JOINT upperneck
					{
						OFFSET 0.010113 0.088937 0.050410
						CHANNELS 3 Zrotation Yrotation Xrotation
						End Site
						{
							OFFSET 0.000000 0.000000 0.000000
						}
					}
				}
				JOINT lclavicle
				{
					OFFSET 0.071702 0.114000 -0.018898
					CHANNELS 3 Zrotation Yrotation Xrotation
					JOINT lshoulder
					{
						OFFSET 0.122921 0.045205 -0.019046
						CHANNELS 3 Zrotation Yrotation Xrotation
						JOINT lelbow
						{
							OFFSET 0.255332 -0.015649 -0.022946
							CHANNELS 3 Zrotation Yrotation Xrotation
							JOINT lwrist
							{
								OFFSET 0.265709 0.012698 -0.007375
								CHANNELS 3 Zrotation Yrotation Xrotation
								End Site
								{
									OFFSET 0.000000 0.000000 0.000000
								}
							}
						}
					}
				}
				JOINT rclavicle
				{
					OFFSET -0.082954 0.112472 -0.023707
					CHANNELS 3 Zrotation Yrotation Xrotation
					JOINT rshoulder
					{
						OFFSET -0.113228 0.046853 -0.008472
						CHANNELS 3 Zrotation Yrotation Xrotation
						JOINT relbow
						{
							OFFSET -0.260127 -0.014369 -0.031269
							CHANNELS 3 Zrotation Yrotation Xrotation
							JOINT rwrist
							{
								OFFSET -0.269108 0.006794 -0.006027
								CHANNELS 3 Zrotation Yrotation Xrotation
								End Site
								{
									OFFSET 0.000000 0.000000 0.000000
								}
							}
						}
					}
				}
			}
		}
	}
}
MOTION
Frames: 7
Frame Time: 0.033333
0.174987 -0.050209 0.984057 12.792273 -1.039717 89.343185 2.053434 0.914489 2.900910 -2.581571 -7.422910 0.697175 3.216792 9.825404 -10.396572 0.000000 -0.000000 0.000000 -4.568345 -2.344356 3.688911 -1.765951 3.663193 5.162612 1.997794 -6.390069 -11.215284 0.000000 -0.000000 0.000000 -1.652626 4.120613 0.519663 -0.211535 -0.500417 10.555486 -2.342543 0.896775 -5.394726 1.655920 1.388194 -11.458862 2.584191 -1.696479 5.707654 -31.269780 1.817271 -1.958472 -50.057141 -3.258433 8.003678 12.351250 -22.130018 -3.253419 -1.992727 -5.179234 6.519529 32.071814 1.428575 5.580064 46.706945 2.952159 12.073656 -9.669997 28.589070 3.164558 2.754354 6.645257 15.545823 
0.175606 -0.050263 0.983916 12.699278 -0.880299 89.279855 2.313915 1.048783 2.979290 -2.805384 -7.378830 0.714286 3.355202 9.707724 -10.447306 0.000000 -0.000000 0.000000 -4.456276 -2.386001 3.646089 -1.798501 3.577316 5.306834 2.256733 -6.143739 -11.286805 0.000000 -0.000000 0.000000 -1.607988 4.158371 0.962418 -0.244598 -0.436423 9.923861 -2.182830 1.001462 -5.262133 1.641875 0.801312 -11.814789 2.566209 -1.632923 5.994284 -31.403568 1.689917 -1.816439 -49.343907 -3.134678 7.989839 12.269063 -22.107984 -3.122642 -2.035955 -5.021859 6.134279 31.992189 1.047914 6.309328 46.382567 3.552515 11.708072 -10.197995 29.132853 2.748929 3.210080 6.464657 14.864855 
0.176871 -0.050453 0.983914 12.553436 -0.830745 89.173409 2.228684 1.363250 3.216258 -2.672250 -7.576535 0.581851 3.409753 9.726757 -10.502179 0.000000 -0.000000 0.000000 -4.508826 -2.346401 3.748470 -1.783850 3.712841 5.291527 2.307323 -6.129552 -11.280452 0.000000 -0.000000 0.000000 -1.444898 4.110887 1.165215 -0.318259 -0.424308 9.763997 -2.297158 1.042036 -5.194910 1.680008 0.558315 -11.877660 2.553373 -1.696404 5.599953 -31.268996 1.593825 -1.871540 -48.713306 -3.011770 7.843415 12.081497 -22.131180 -3.583868 -1.570152 -5.022700 5.786220 31.896390 1.261259 6.060944 46.060120 3.490179 11.648698 -10.473910 29.379353 2.343952 3.108559 6.510646 14.939807 
0.178279 -0.050840 0.983940 12.542817 -0.923625 89.275080 1.936681 1.252579 3.129074 -2.538930 -7.474664 0.631666 3.485406 9.793365 -10.545550 0.000000 -0.000000 0.000000 -4.663433 -2.298567 3.650602 -1.849659 3.780557 5.267035 2.282893 -6.198219 -11.257042 0.000000 -0.000000 0.000000 -1.651692 4.170972 1.048164 -0.292026 -0.481928 9.960981 -2.398233 1.042064 -5.371236 1.760214 0.228811 -12.210947 2.688646 -2.079905 5.466553 -30.976963 1.584484 -2.155271 -47.722115 -2.917645 7.796037 11.915797 -22.524926 -4.125363 -1.615227 -5.244003 5.727048 31.797840 1.234015 5.666914 45.535010 3.359156 11.524109 -10.560422 30.365896 1.906683 3.806071 7.006552 14.932817 
0.179216 -0.051185 0.984022 12.388317 -0.952467 89.269934 1.863334 1.149911 3.198003 -2.613257 -7.374897 0.612756 3.504527 9.895561 -10.546234 0.000000 -0.000000 0.000000 -4.752956 -2.276674 3.594879 -1.895968 3.848927 5.362095 2.328354 -6.179317 -11.209914 0.000000 -0.000000 0.000000 -1.711762 4.229777 0.957206 -0.314483 -0.540857 10.175395 -2.446758 1.092202 -5.449335 1.755875 0.198474 -12.299194 2.827172 -2.314380 5.127744 -30.912102 1.522885 -2.222320 -46.992195 -2.921132 7.584903 12.490436 -22.876347 -4.264208 -2.666749 -5.365281 6.764626 31.715433 1.400120 5.651294 45.156545 3.347672 11.255843 -11.035296 31.006181 1.447518 4.170375 7.081476 14.957842 
0.180589 -0.051274 0.984095 12.230817 -0.920952 89.357377 1.813279 1.134124 3.076020 -2.654039 -7.232990 0.716016 3.529142 9.959950 -10.573761 0.000000 -0.000000 0.000000 -4.795624 -2.173152 3.401550 -1.929941 3.845387 5.499392 2.422421 -6.109650 -11.245892 0.000000 -0.000000 0.000000 -1.818886 4.170074 0.962498 -0.260581 -0.542744 10.163286 -2.450539 1.146070 -5.529222 1.797869 0.154745 -12.305188 2.837855 -2.487691 4.776286 -30.648029 1.494496 -2.369369 -46.030405 -2.840410 7.229385 12.659907 -24.033796 -5.341915 -1.851209 -5.400931 6.155983 31.483140 1.459611 5.315670 44.399428 3.424447 10.947077 -11.446712 31.657313 0.871602 4.193327 7.592175 15.238837 
0.182617 -0.052003 0.984191 12.066905 -0.789870 89.332718 1.834409 1.267505 3.116572 -2.653227 -7.133998 0.797038 3.502271 9.908828 -10.647818 0.000000 -0.000000 0.000000 -4.827789 -2.316272 3.384327 -1.896674 3.857606 5.527296 2.428775 -5.922121 -11.241764 0.000000 -0.000000 0.000000 -1.589524 4.175618 0.917817 -0.309808 -0.543629 10.309788 -2.560006 1.049760 -5.553981 1.813309 0.195968 -12.395308 2.857482 -2.841081 4.571591 -30.348056 1.453824 -2.506273 -44.964150 -2.857564 6.733374 13.507537 -25.255558 -6.128052 -1.757181 -5.791553 6.378000 31.265546 1.573584 4.926940 43.500570 3.408468 10.652902 -12.049608 33.473256 0.426263 4.182906 7.522115 15.384852 
